<?xml version="1.0" encoding="utf-8"?>
<!-- Generator: Adobe Illustrator 27.5.0, SVG Export Plug-In . SVG Version: 6.00 Build 0)  -->
<svg version="1.2" baseProfile="tiny" id="Capa_1" xmlns="http://www.w3.org/2000/svg" xmlns:xlink="http://www.w3.org/1999/xlink"
	 x="0px" y="0px" width="122.8px" height="208px" viewBox="0 0 122.8 208" overflow="visible" xml:space="preserve">
<path fill="none" stroke="#1E1E1C" stroke-width="0.5" stroke-miterlimit="10" d="M103.7,39.2c-12.9,0.3-19.6,4.9-19.1,11
	c0.3,3.4,6.2,6,11.4,7.6c-2.2,5.2-4.5,12.8-6.6,24c-6.4,34.2-14,60-17.4,70.7c-0.1-1.5-0.1-2.9,0.2-4.1c0.2-1,0.5-2,0.6-3.1
	c1-7.4,3.8-33.1-3.1-54.4c-8.3-25.4,6.3-42,8-64.6c6-0.5,15.8-2.4,15.8-9.3C93.5,7,70-5.7,61.2,2.7C52.3,11.2,34.9,25.1,50.1,28
	c15.2,2.9,16.4,1.8,16.4,1.8s-10.6,30.5-8.9,47c1.6,15.8,10.8,30.5,4.6,69.4l0,0c0,0-0.7,2.5-1.6,5.4c-1.3-0.3-2.6-0.6-4-0.8
	c0-8.4,4.8-10.1-4.9-48.1c-11.3-44.2-10.5-33.2-10-47.6c0,0,22-9.5,8.1-18.5c-14-8.9-20.8-7.5-25.2-0.4c-4.5,7.1-13.7,21.1,5.6,20.8
	c0,0,2.7,18,7.7,33.8c4.1,12.9,7.6,30.7,8.5,44.6c-1.8-7.3-5-17.4-10.5-31.6c-4.5-11.5-16.3-30.5-16.3-30.5
	C36.7,66,8.3,44.5,1.4,62.5c-5,13.2,5,14.5,7.4,14.6s7.8,11.2,15.1,22.9c6.1,9.8,10.9,30.7,12.4,37.4c0.4,6.8-4.3,7.3-2.3,17.4
	c0.2,0.9,0.4,1.8,0.7,2.5c-6.3,5.3-10.2,13.2-10.2,22c0,15.9,12.9,28.7,28.7,28.7c15.9,0,28.7-12.9,28.7-28.7
	c0-5.6-1.6-10.9-4.4-15.3c1.1-2.2,2-4.2,2-4.2l2.8-8.5c0,0,8.3-33.7,12.2-52.8c3.9-19,8.8-31.3,11.5-37.1c3.4,2.3,10.1,6.2,14.9,4.2
	C127.3,62.9,116.6,38.9,103.7,39.2z"/>
<path fill="none" stroke="#1E1E1C" stroke-width="0.5" stroke-miterlimit="10" d="M25.2,180c0,15.6,12.6,28.1,28.1,28.1
	c15.6,0,28.1-12.6,28.1-28.1c0-5.4-1.5-10.5-4.2-14.8c1.1-2.1,1.9-4.1,1.9-4.1c0,0,2.7-8.2,2.7-8.2c-0.1-0.1,7.8-32.6,11.4-51
	c3.8-18.3,8.5-30.1,11.1-35.7c3.3,2.2,9.7,5.9,14.3,4c6.2-2.6-4.1-25.7-16.5-25.5C89.6,45,83.2,49.4,83.7,55.2c0.3,3.2,6,5.7,11,7.3
	c-2.1,5-4.3,12.2-6.3,23c-4.1,21.8-8.7,40-12.2,52.7c-1.8,6.4-3.3,11.5-4.4,14.9c-0.1-1.4-0.1-2.8,0.2-3.9c0.2-1,0.5-1.9,0.6-3
	c1-7.2,3.7-31.9-3-52.4c-8-24.5,6-40.5,7.7-62.2c2.2-0.2,5-0.6,7.6-1.4c4-1.3,7.4-3.5,7.6-7.6C92.8,12.9,69.8,0.1,61,8.4
	c-8.6,8.2-25.3,21.6-10.7,24.4C64.9,35.6,66,34.5,66,34.5c0,0.1-10.2,29.4-8.5,45.3c0.8,8,3.7,15.7,5.3,26.6
	c1.5,9.9,2,22.4-0.8,40.2l0,0c0,0-0.7,2.4-1.5,5.2c-1.2-0.3-2.5-0.6-3.8-0.8c0-8,4.6-9.6-4.7-46c-1-3.7-1.8-7-2.6-10
	c-8.1-30.7-7.4-23-7-35.5c0,0,21.1-9.1,7.8-17.7c-13.4-8.5-20-7.1-24.2-0.3c-4.3,6.9-13.2,20.3,5.3,20.1c0,0,2.6,17.4,7.4,32.6
	c3.3,10.6,6.2,24.5,7.6,36.7c0.2,2.2,0.4,4.3,0.5,6.3c-1.6-6.2-4.2-14.5-8.4-25.7c-0.6-1.5-1.1-3-1.7-4.5
	c-4.4-11-15.7-29.3-15.8-29.2c16.4-7-10.9-27.6-17.6-10.3c-4.8,12.7,4.8,13.9,7.1,14.1c2.3,0.1,7.4,10.8,14.4,22.1
	c5.8,9.4,10.4,29.6,11.8,36c0.4,6.5-4.1,7-2.2,16.8c0.2,0.9,0.4,1.7,0.7,2.4C28.9,163.9,25.2,171.5,25.2,180z"/>
<path fill="none" stroke="#1E1E1C" stroke-width="0.5" stroke-miterlimit="10" d="M25.8,180.6c0,15.2,12.3,27.4,27.4,27.4
	c15.2,0,27.4-12.3,27.4-27.4c0-5.2-1.5-10.2-4.1-14.3c1-2,1.8-3.9,1.8-3.9c0,0,2.5-7.9,2.5-7.9c-0.1-0.2,7.3-31.4,10.7-49.1
	c3.6-17.5,8.1-28.9,10.7-34.4c3.1,2.1,9.3,5.6,13.7,3.8c5.9-2.6-3.9-24.7-15.8-24.5c-11.9,0.2-18,4.4-17.5,10
	c0.3,3.1,5.7,5.5,10.5,6.9c-2,4.7-4.1,11.7-6,21.9c-3.9,20.8-8.3,38.2-11.7,50.3c-1.7,6.2-3.2,11-4.2,14.2c-0.1-1.4-0.1-2.7,0.2-3.8
	c0.2-0.9,0.5-1.9,0.6-2.9c0.9-6.9,3.5-30.7-2.8-50.4c-7.6-23.5,5.8-39,7.3-59.9c2.1-0.2,4.8-0.6,7.3-1.4c3.9-1.2,6.9-3.4,7.3-7.3
	c1-9.2-21.5-22.2-30.2-14c-8.3,7.9-24.3,20.7-10.4,23.5c14,2.7,15.1,1.7,15,1.8c0,0.1-9.7,28.3-8.1,43.6c0.8,7.7,3.6,15.1,5.2,25.6
	c1.5,9.5,2,21.5-0.7,38.7l0,0c0,0-0.6,2.3-1.5,5c-1.2-0.3-2.4-0.5-3.7-0.7c0-7.6,4.4-9.1-4.5-43.9c-0.9-3.6-1.7-6.7-2.5-9.5
	C41.9,68.6,42.6,76,43,64c0,0.1,20.2-8.6,7.4-16.8c-12.9-8.1-19.2-6.8-23.2-0.2c-4.2,6.6-12.6,19.6,5.1,19.3c0,0.1,2.4,16.7,7,31.3
	c3.2,10.2,5.9,23.6,7.2,35.3c0.2,2.1,0.4,4.1,0.5,6.1c-1.5-5.9-4-13.8-8.2-24.6c-0.5-1.4-1.1-2.8-1.7-4.3C33,99.5,22,82.1,22,82.1
	c15.6-6.7-10.6-26.4-17-9.8c-4.6,12.2,4.5,13.4,6.7,13.5c2.2,0.1,7.1,10.4,13.8,21.2c5.6,9.1,9.9,28.4,11.3,34.7
	c0.4,6.3-4,6.8-2.1,16.1c0.2,0.8,0.4,1.7,0.6,2.3C29.4,165.1,25.8,172.4,25.8,180.6z"/>
<path fill="none" stroke="#1E1E1C" stroke-width="0.5" stroke-miterlimit="10" d="M26.5,181.2c0,14.9,12,26.8,26.8,26.8
	c14.9,0,26.8-12,26.8-26.8c0-5-1.4-9.8-3.9-13.8c1-2,1.7-3.8,1.7-3.8c0-0.1,2.4-7.6,2.4-7.7c-0.2-0.4,6.8-30.3,9.9-47.3
	c3.5-16.8,7.8-27.8,10.2-33c3,2,8.9,5.4,13.2,3.6c5.7-2.5-3.7-23.7-15.1-23.6c-11.3,0.2-17.2,4.2-16.8,9.5c0.3,2.9,5.5,5.2,10.1,6.6
	c-1.9,4.5-3.9,11.1-5.8,20.9c-3.7,19.8-7.9,36.4-11.1,48c-1.6,5.9-3.1,10.5-4.1,13.6c-0.1-1.3-0.1-2.6,0.2-3.6
	c0.2-0.9,0.4-1.8,0.5-2.8c0.9-6.7,3.4-29.5-2.7-48.4c-7.3-22.6,5.5-37.5,7-57.5c2.1-0.2,4.6-0.6,7-1.3c3.7-1.2,6.4-3.3,7-7
	c1.4-8.7-20.5-21.9-29.2-13.8c-8,7.6-23.3,19.9-10,22.5c13.3,2.6,14.4,1.7,14.4,1.8c0,0.2-9.3,27.2-7.7,41.9
	c0.8,7.4,3.5,14.5,5,24.6c1.4,9.1,1.9,20.7-0.7,37.1l0,0c0,0-0.6,2.2-1.4,4.8c-1.1-0.3-2.3-0.5-3.5-0.7c0-7.3,4.2-8.6-4.3-41.8
	c-0.9-3.4-1.7-6.4-2.4-9.1c-7.4-28.1-6.8-20.9-6.4-32.3c0,0.1,19.3-8.2,7.1-16c-12.3-7.7-18.3-6.4-22.2-0.1
	c-4,6.4-12.1,18.8,4.8,18.6c0,0.1,2.3,16.1,6.7,30.1c3,9.8,5.7,22.7,6.9,33.9c0.2,2,0.4,4,0.5,5.8c-1.5-5.6-3.9-13.2-7.9-23.5
	c-0.5-1.3-1.1-2.7-1.6-4.1c-4.1-10.1-14.6-26.8-14.7-26.7c14.9-6.4-10.2-25.2-16.4-9.3c-4.5,11.7,4.3,12.8,6.4,13
	c2,0.1,6.7,10,13.1,20.4c5.3,8.7,9.5,27.3,10.7,33.3c0.3,6-3.8,6.5-2.1,15.5c0.2,0.8,0.3,1.6,0.6,2.2
	C29.9,166.3,26.5,173.4,26.5,181.2z"/>
<path fill="none" stroke="#1E1E1C" stroke-width="0.5" stroke-miterlimit="10" d="M27.2,181.8c0,14.5,11.8,26.2,26.2,26.2
	c14.5,0,26.2-11.8,26.2-26.2c0-4.9-1.4-9.5-3.8-13.3c0.9-1.9,1.7-3.6,1.6-3.7c0-0.1,2.3-7.3,2.3-7.4c-0.2-0.5,6.4-29.2,9.1-45.4
	c3.3-16.1,7.5-26.6,9.8-31.6c2.9,1.9,8.5,5.1,12.6,3.3c5.4-2.4-3.5-22.7-14.3-22.6c-10.8,0.2-16.4,3.9-16,8.9
	c0.3,2.8,5.2,4.9,9.6,6.2c-1.8,4.3-3.7,10.6-5.5,19.9c-3.5,18.9-7.5,34.6-10.6,45.6c-1.6,5.6-2.9,10-3.9,12.9
	c-0.1-1.3-0.1-2.5,0.2-3.5c0.2-0.9,0.4-1.7,0.5-2.6c0.9-6.4,3.2-28.3-2.6-46.4c-7-21.7,5.3-35.9,6.7-55.1c2-0.2,4.4-0.6,6.7-1.3
	c3.5-1.1,5.9-3.3,6.7-6.7c1.9-8.3-19.6-21.6-28.1-13.7c-7.6,7.3-22.4,19.1-9.7,21.6c12.7,2.5,13.7,1.7,13.7,1.7
	c-0.1,0.2-8.9,26.1-7.4,40.1c0.8,7.1,3.4,14,4.9,23.5c1.4,8.7,1.9,19.8-0.6,35.6l0,0c0,0-0.6,2.1-1.3,4.6c-1.1-0.2-2.2-0.5-3.4-0.6
	c0-6.9,4.1-8.1-4.1-39.7c-0.8-3.2-1.6-6.1-2.3-8.6c-7.1-26.7-6.5-19.8-6.2-30.7c0,0.1,18.4-7.7,6.7-15.2c-11.8-7.3-17.5-6-21.3,0.1
	c-3.8,6.1-11.6,18,4.6,17.9c0,0.2,2.2,15.5,6.3,28.9c2.9,9.4,5.4,21.8,6.5,32.5c0.2,1.9,0.3,3.8,0.4,5.6c-1.4-5.3-3.8-12.5-7.6-22.3
	c-0.5-1.3-1-2.6-1.6-3.9c-3.9-9.6-14-25.5-14.2-25.5c14.2-6.1-9.8-24-15.8-8.8c-4.3,11.1,4.1,12.3,6,12.4c1.9,0.2,6.4,9.6,12.4,19.5
	c5,8.4,9,26.1,10.2,31.9c0.3,5.8-3.7,6.3-2,14.9c0.2,0.8,0.3,1.5,0.6,2.1C30.5,167.6,27.2,174.3,27.2,181.8z"/>
<path fill="none" stroke="#1E1E1C" stroke-width="0.5" stroke-miterlimit="10" d="M27.8,182.5c0,14.2,11.5,25.6,25.6,25.6
	c14.2,0,25.6-11.5,25.6-25.6c0-4.7-1.3-9.1-3.6-12.8c0.9-1.8,1.6-3.5,1.6-3.5c0-0.1,2.2-7,2.1-7.1c-0.3-0.6,5.9-28,8.4-43.6
	c3.2-15.4,7.2-25.4,9.4-30.3c2.7,1.8,8.1,4.8,12,3.1c5.2-2.3-3.4-21.7-13.6-21.7c-10.3,0.1-15.6,3.7-15.2,8.4c0.3,2.6,5,4.7,9.2,5.9
	c-1.7,4-3.6,10-5.2,18.8c-3.4,17.9-7.1,32.8-10.1,43.2c-1.5,5.3-2.8,9.4-3.7,12.2c-0.1-1.2-0.1-2.4,0.2-3.3c0.2-0.8,0.4-1.6,0.5-2.5
	c0.8-6.2,3.1-27.1-2.4-44.4c-6.6-20.8,5-34.4,6.4-52.7c1.9-0.2,4.2-0.6,6.3-1.3c3.4-1.1,5.4-3.2,6.4-6.4
	c2.4-7.8-18.6-21.3-27.1-13.5c-7.3,6.9-21.4,18.2-9.3,20.7c12.1,2.4,13,1.6,13,1.7c-0.1,0.3-8.5,25-7,38.4
	c0.8,6.8,3.2,13.4,4.7,22.5c1.3,8.3,1.8,18.9-0.5,34.1l0,0c0,0-0.6,2.1-1.3,4.4c-1-0.2-2.1-0.4-3.2-0.6c0-6.5,3.9-7.6-3.9-37.6
	c-0.8-3-1.5-5.8-2.2-8.2C44.1,81,44.6,87.6,45,77.4c0,0.1,17.6-7.3,6.4-14.3c-11.2-7-16.7-5.7-20.3,0.2c-3.6,5.9-11,17.2,4.3,17.2
	c-0.1,0.2,2,14.8,6,27.6c2.7,9,5.1,20.8,6.1,31.1c0.2,1.8,0.3,3.6,0.4,5.3c-1.4-5-3.7-11.8-7.3-21.2c-0.5-1.2-1-2.5-1.5-3.8
	c-3.8-9.2-13.4-24.3-13.6-24.2C39,89.5,16.1,72.5,10.3,87C6.3,97.6,14.2,98.7,16,98.9c1.8,0.2,6,9.2,11.8,18.7
	c4.8,8,8.5,25,9.6,30.6c0.3,5.5-3.5,6-1.9,14.2c0.2,0.7,0.3,1.5,0.6,2C31,168.8,27.8,175.3,27.8,182.5z"/>
<path fill="none" stroke="#1E1E1C" stroke-width="0.5" stroke-miterlimit="10" d="M28.5,183.1c0,13.8,11.2,24.9,24.9,24.9
	c13.8,0,24.9-11.2,24.9-24.9c0-4.5-1.3-8.8-3.4-12.3c0.8-1.7,1.5-3.3,1.5-3.4c0-0.1,2-6.7,2-6.8c-0.3-0.7,5.4-26.9,7.6-41.7
	c3-14.6,6.8-24.2,9-28.9c2.6,1.7,7.7,4.5,11.4,2.9c4.9-2.3-3.2-20.7-12.9-20.7C83.7,72.2,78.6,75.5,79,80c0.2,2.5,4.7,4.4,8.7,5.5
	c-1.6,3.8-3.4,9.4-4.9,17.8c-3.2,17-6.8,31.1-9.5,40.8c-1.4,5-2.6,8.9-3.5,11.5c-0.1-1.2-0.1-2.3,0.2-3.2c0.2-0.8,0.4-1.6,0.5-2.4
	c0.8-6,2.9-25.9-2.3-42.4c-6.3-19.8,4.8-32.9,6-50.4c1.8-0.2,4-0.6,6-1.2c3.2-1.1,5-3.1,6.1-6.1c2.9-7.3-17.6-21.1-26-13.4
	c-7,6.6-20.4,17.4-8.9,19.8c11.5,2.3,12.4,1.6,12.3,1.7c-0.1,0.4-8,23.9-6.6,36.7c0.8,6.5,3.1,12.8,4.5,21.5
	c1.3,7.9,1.7,18-0.5,32.5l0,0c0,0-0.5,2-1.2,4.2c-1-0.2-2-0.4-3-0.5c0-6.1,3.7-7.1-3.7-35.5c-0.8-2.9-1.4-5.4-2-7.7
	c-6.4-24.1-5.9-17.8-5.6-27.4c0,0.2,16.7-6.9,6.1-13.5C41,61.7,35.8,63,32.4,68.6C28.9,74.2,21.9,85,36.5,85
	c-0.1,0.3,1.9,14.2,5.7,26.4c2.5,8.7,4.8,19.9,5.8,29.7c0.2,1.8,0.3,3.5,0.4,5.1c-1.3-4.7-3.5-11.2-7-20c-0.5-1.1-1-2.3-1.5-3.6
	c-3.7-8.7-12.9-23.1-13.1-23c12.7-5.4-9.1-21.6-14.6-7.8c-3.9,10.1,3.6,11.2,5.3,11.4c1.7,0.2,5.7,8.8,11.1,17.9
	c4.5,7.7,8,23.8,9.1,29.2c0.3,5.3-3.3,5.8-1.8,13.6c0.1,0.7,0.3,1.4,0.5,2C31.5,170.1,28.5,176.2,28.5,183.1z"/>
<path fill="none" stroke="#1E1E1C" stroke-width="0.5" stroke-miterlimit="10" d="M29.2,183.7c0,13.5,10.9,24.3,24.3,24.3
	c13.5,0,24.3-10.9,24.3-24.3c0-4.3-1.2-8.4-3.3-11.8c0.8-1.7,1.4-3.2,1.4-3.3c0-0.1,1.9-6.4,1.8-6.5c-0.4-0.8,4.9-25.8,6.8-39.9
	c2.9-13.9,6.5-23,8.5-27.5c2.5,1.5,7.3,4.2,10.8,2.7c4.7-2.2-3-19.7-12.2-19.8c-9.3,0.1-14,3.2-13.6,7.4c0.2,2.3,4.5,4.1,8.3,5.2
	c-1.6,3.6-3.2,8.9-4.7,16.7c-3,16-6.4,29.3-9,38.4c-1.3,4.7-2.5,8.4-3.3,10.9c-0.1-1.1-0.1-2.1,0.2-3c0.1-0.7,0.4-1.5,0.4-2.3
	c0.8-5.7,2.8-24.7-2.2-40.4c-6-18.9,4.5-31.4,5.7-48c1.7-0.2,3.8-0.6,5.7-1.2c3-1,5.3-2.8,5.8-5.8c1.3-7.5-16.6-20.8-25-13.2
	c-6.7,6.3-19.4,16.6-8.6,18.9c10.9,2.2,11.7,1.6,11.7,1.7c-0.1,0.4-7.6,22.8-6.2,35c0.8,6.3,3,12.2,4.4,20.5
	c1.2,7.5,1.7,17.2-0.4,31l0,0c0,0-0.5,1.9-1.1,4c-0.9-0.2-1.9-0.4-2.9-0.5c0-5.7,3.5-6.5-3.5-33.4c-0.7-2.7-1.4-5.1-1.9-7.2
	c-6.1-22.8-5.6-16.7-5.3-25.8c0,0.2,15.8-6.4,5.7-12.7c-10.1-6.2-15.1-4.9-18.3,0.4c-3.3,5.4-10,15.7,3.8,15.7
	c-0.1,0.3,1.8,13.5,5.3,25.2c2.4,8.3,4.5,19,5.4,28.3c0.2,1.7,0.3,3.3,0.3,4.9c-1.3-4.4-3.4-10.5-6.8-18.9c-0.5-1.1-0.9-2.2-1.4-3.4
	c-3.5-8.2-12.3-21.8-12.6-21.7c12-5.1-8.7-20.4-14-7.3c-3.7,9.6,3.4,10.6,5,10.8c1.6,0.2,5.3,8.4,10.4,17c4.2,7.3,7.5,22.7,8.5,27.8
	c0.2,5-3.2,5.5-1.8,13c0.1,0.7,0.3,1.3,0.5,1.9C32,171.3,29.2,177.2,29.2,183.7z"/>
<path fill="none" stroke="#1E1E1C" stroke-width="0.5" stroke-miterlimit="10" d="M29.9,184.4c0,13.1,10.6,23.7,23.7,23.7
	c13.1,0,23.7-10.6,23.7-23.7c0-4.1-1.1-8-3.1-11.3c0.7-1.6,1.3-3,1.3-3.1c-0.1-0.2,1.8-6.1,1.7-6.3c-0.4-1,4.4-24.6,6.1-38
	c2.7-13.2,6.2-21.9,8.1-26.2c2.3,1.4,6.9,4,10.2,2.5c4.4-2.1-2.8-18.7-11.5-18.8c-8.7,0-13.2,2.9-12.9,6.9c0.2,2.2,4.3,3.8,7.8,4.8
	c-1.5,3.3-3,8.3-4.4,15.7c-2.8,15-6,27.5-8.5,36.1c-1.3,4.4-2.3,7.9-3.1,10.2c-0.1-1.1-0.1-2,0.1-2.9c0.1-0.7,0.3-1.4,0.4-2.2
	c0.7-5.5,2.6-23.5-2-38.4c-5.6-18,4.3-29.9,5.4-45.6c1.6-0.2,3.6-0.6,5.4-1.2c2.9-1,5-2.7,5.5-5.5c1.5-7.2-15.6-20.5-23.9-13.1
	c-6.4,6-18.4,15.7-8.2,17.9c10.3,2.1,11,1.5,11,1.7c-0.1,0.5-7.2,21.7-5.8,33.3c0.7,6,2.9,11.6,4.2,19.4c1.2,7.1,1.6,16.3-0.3,29.5
	l0,0c0,0-0.5,1.8-1.1,3.8c-0.9-0.2-1.8-0.3-2.7-0.4c0-5.3,3.3-6-3.3-31.3c-0.7-2.5-1.3-4.8-1.8-6.8c-5.7-21.5-5.3-15.7-5-24.2
	c0,0.2,14.9-6,5.4-11.8C42.8,73,38.1,74.3,35,79.4c-3.1,5.1-9.5,14.9,3.6,15c-0.1,0.3,1.7,12.9,5,23.9c2.2,7.9,4.2,18.1,5.1,26.9
	c0.1,1.6,0.2,3.1,0.3,4.6c-1.3-4.1-3.3-9.9-6.5-17.7c-0.4-1-0.9-2.1-1.4-3.2c-3.4-7.8-11.7-20.6-12-20.5c11.3-4.8-8.4-19.2-13.4-6.8
	c-3.5,9.1,3.1,10.1,4.6,10.3c1.5,0.2,5,8,9.8,16.2c3.9,7,7,21.5,8,26.4c0.2,4.8-3,5.3-1.7,12.3c0.1,0.6,0.3,1.3,0.5,1.8
	C32.5,172.5,29.9,178.1,29.9,184.4z"/>
<path fill="none" stroke="#1E1E1C" stroke-width="0.5" stroke-miterlimit="10" d="M30.5,185c0,12.8,10.3,23,23,23
	c12.8,0,23-10.3,23-23c0-3.9-1.1-7.7-3-10.8c0.7-1.5,1.2-2.9,1.2-3c-0.1-0.2,1.7-5.8,1.6-6c-0.5-1.1,3.9-23.5,5.3-36.2
	c2.6-12.5,5.8-20.7,7.7-24.8c2.2,1.3,6.5,3.7,9.7,2.3c4.2-2-2.6-17.7-10.8-17.9c-8.2,0-12.4,2.7-12.1,6.4c0.2,2,4,3.6,7.4,4.5
	c-1.4,3.1-2.8,7.7-4.1,14.7c-2.6,14.1-5.6,25.7-7.9,33.7c-1.2,4.2-2.2,7.4-2.9,9.5c-0.1-1-0.1-1.9,0.1-2.7c0.1-0.7,0.3-1.3,0.4-2.1
	c0.7-5.3,2.5-22.3-1.9-36.4c-5.3-17,4-28.4,5.1-43.2c1.5-0.2,3.3-0.5,5.1-1.1c2.7-0.9,5.1-2.6,5.3-5.3c3-6.4-14.6-20.3-22.9-12.9
	c-6.1,5.7-17.4,14.9-7.9,17c9.6,2,10.3,1.5,10.3,1.7c-0.1,0.6-6.7,20.6-5.4,31.6c0.7,5.7,2.8,11.1,4.1,18.4c1.1,6.7,1.6,15.4-0.2,28
	l0,0c0,0.1-0.4,1.7-1,3.6c-0.8-0.2-1.7-0.3-2.6-0.4c0-5,3.1-5.5-3.1-29.2c-0.6-2.4-1.2-4.5-1.7-6.3c-5.4-20.1-5-14.6-4.7-22.6
	c0,0.3,14-5.5,5.1-11c-9-5.4-13.4-4.2-16.3,0.6c-3,4.9-8.9,14.2,3.3,14.3c-0.1,0.4,1.5,12.3,4.6,22.7c2.1,7.5,3.9,17.2,4.7,25.5
	c0.1,1.5,0.2,3,0.3,4.4c-1.2-3.9-3.2-9.2-6.2-16.6c-0.4-1-0.9-2-1.3-3c-3.2-7.3-11.2-19.4-11.5-19.2c10.5-4.5-8-18-12.8-6.3
	c-3.4,8.6,2.9,9.5,4.3,9.8c1.3,0.2,4.6,7.6,9.1,15.3c3.7,6.6,6.6,20.4,7.4,25.1c0.2,4.5-2.9,5-1.6,11.7c0.1,0.6,0.2,1.2,0.4,1.7
	C33,173.8,30.5,179.1,30.5,185z"/>
<path fill="none" stroke="#1E1E1C" stroke-width="0.5" stroke-miterlimit="10" d="M31.2,185.6c0,12.4,10.1,22.4,22.4,22.4
	C66,208,76,198,76,185.6c0-3.8-1-7.3-2.8-10.4c0.6-1.4,1.1-2.7,1.1-2.9c-0.1-0.2,1.5-5.5,1.4-5.7c-0.6-1.2,3.4-22.4,4.5-34.4
	c2.5-11.7,5.5-19.5,7.3-23.4c2.1,1.2,6.1,3.4,9.1,2c3.9-2-2.4-16.7-10.1-17c-7.7-0.1-11.7,2.5-11.3,5.9c0.2,1.9,3.8,3.3,6.9,4.1
	c-1.3,2.9-2.6,7.2-3.8,13.6c-2.5,13.1-5.2,23.9-7.4,31.3c-1.1,3.9-2,6.9-2.7,8.8c-0.1-0.9-0.1-1.8,0.1-2.6c0.1-0.6,0.3-1.3,0.4-2
	c0.7-5,2.4-21.1-1.8-34.4c-5-16.1,3.7-26.8,4.7-40.9c1.4-0.2,3.1-0.5,4.7-1.1c2.5-0.9,4.8-2.4,5-5c3.3-6-13.7-20-21.8-12.8
	c-5.7,5.4-16.5,14.1-7.5,16.1c9,1.9,9.7,1.5,9.6,1.6c-0.1,0.6-6.3,19.5-5,29.8c0.7,5.4,2.7,10.5,3.9,17.4c1.1,6.3,1.5,14.5-0.2,26.4
	l0,0c0,0.1-0.4,1.6-0.9,3.4c-0.8-0.1-1.6-0.3-2.4-0.3c0-4.6,2.9-5-2.9-27.1c-0.6-2.2-1.1-4.2-1.6-5.9c-5-18.8-4.7-13.6-4.4-21
	c0,0.3,13.1-5.1,4.7-10.2c-8.5-5-12.6-3.8-15.3,0.8c-2.8,4.6-8.4,13.4,3.1,13.5c-0.1,0.4,1.4,11.6,4.3,21.5
	c1.9,7.1,3.6,16.3,4.4,24.1c0.1,1.4,0.2,2.8,0.2,4.1c-1.2-3.6-3.1-8.6-5.9-15.5c-0.4-0.9-0.8-1.8-1.3-2.8c-3.1-6.8-10.6-18.1-11-18
	c9.8-4.2-7.6-16.9-12.2-5.8c-3.2,8.1,2.7,9,3.9,9.2c1.2,0.3,4.2,7.2,8.4,14.5c3.4,6.3,6.1,19.2,6.8,23.7c0.2,4.3-2.7,4.8-1.5,11
	c0.1,0.6,0.2,1.1,0.4,1.6C33.6,175,31.2,180,31.2,185.6z"/>
<path fill="none" stroke="#1E1E1C" stroke-width="0.5" stroke-miterlimit="10" d="M31.9,186.2c0,12.1,9.8,21.8,21.8,21.8
	c12.1,0,21.8-9.8,21.8-21.8c0-3.6-1-7-2.6-9.9c0.6-1.4,1.1-2.6,1-2.7c-0.1-0.2,1.4-5.2,1.3-5.4c-0.6-1.3,2.9-21.2,3.8-32.5
	c2.3-11,5.2-18.3,6.8-22.1c2,1.1,5.8,3.1,8.5,1.8c3.7-1.9-2.2-15.7-9.3-16c-7.2-0.1-10.9,2.2-10.5,5.3c0.2,1.7,3.5,3,6.5,3.8
	c-1.2,2.6-2.4,6.6-3.5,12.6c-2.3,12.1-4.8,22.1-6.8,28.9c-1,3.6-1.9,6.4-2.5,8.2c-0.1-0.9,0-1.7,0.1-2.4c0.1-0.6,0.3-1.2,0.3-1.8
	c0.6-4.8,2.2-19.8-1.7-32.4c-4.6-15.2,3.5-25.3,4.4-38.5c1.3-0.2,2.9-0.5,4.4-1.1c2.4-0.9,4.5-2.3,4.7-4.7
	c3.7-5.6-12.7-19.7-20.8-12.6C54.1,69.8,44,78,52.4,79.9c8.4,1.8,9,1.4,9,1.6c-0.1,0.7-5.9,18.4-4.7,28.1c0.7,5.1,2.6,9.9,3.8,16.3
	c1.1,5.9,1.5,13.7-0.1,24.9l0,0c0,0.1-0.4,1.5-0.9,3.2c-0.7-0.1-1.5-0.2-2.2-0.3c0-4.2,2.7-4.5-2.6-25c-0.5-2-1-3.8-1.5-5.4
	c-4.7-17.5-4.3-12.5-4.2-19.3c0,0.3,12.2-4.7,4.4-9.3C45.4,90,41.5,91.2,39,95.5c-2.6,4.4-7.9,12.6,2.8,12.8
	c-0.1,0.5,1.3,11,3.9,20.2c1.8,6.7,3.3,15.3,4,22.8c0.1,1.3,0.2,2.6,0.2,3.9c-1.1-3.3-2.9-7.9-5.7-14.3c-0.4-0.8-0.8-1.7-1.2-2.6
	c-3-6.4-10-16.9-10.4-16.7c9.1-3.9-7.3-15.7-11.5-5.3c-3,7.5,2.4,8.4,3.6,8.7c1.1,0.3,3.9,6.8,7.8,13.7c3.1,5.9,5.6,18.1,6.3,22.3
	c0.2,4-2.5,4.5-1.5,10.4c0.1,0.5,0.2,1.1,0.4,1.5C34.1,176.2,31.9,181,31.9,186.2z"/>
<path fill="none" stroke="#1E1E1C" stroke-width="0.5" stroke-miterlimit="10" d="M32.5,186.9c0,11.7,9.5,21.2,21.2,21.2
	c11.7,0,21.2-9.5,21.2-21.2c0-3.4-0.9-6.6-2.5-9.4c0.5-1.3,1-2.5,0.9-2.6c-0.1-0.3,1.3-4.9,1.2-5.2c-0.7-1.4,2.5-20.1,3-30.7
	c2.2-10.3,4.9-17.1,6.4-20.7c1.8,1,5.4,2.8,7.9,1.6c3.4-1.8-2-14.7-8.6-15.1c-6.6-0.1-10.1,2-9.7,4.8c0.2,1.6,3.3,2.8,6,3.4
	c-1.1,2.4-2.2,6.1-3.3,11.6c-2.1,11.2-4.5,20.4-6.3,26.5c-0.9,3.3-1.8,5.8-2.3,7.5c0-0.8,0-1.6,0.1-2.3c0.1-0.6,0.3-1.1,0.3-1.7
	c0.6-4.5,2.1-18.6-1.5-30.4c-4.3-14.2,3.2-23.8,4.1-36.1c1.2-0.2,2.7-0.5,4.1-1c2.2-0.8,4.2-2.2,4.4-4.4c4-5.2-11.7-19.4-19.7-12.5
	c-5.1,4.8-14.5,12.4-6.8,14.3c7.8,1.7,8.3,1.4,8.3,1.6c-0.2,0.7-5.4,17.3-4.3,26.4c0.7,4.8,2.5,9.3,3.6,15.3c1,5.5,1.4,12.8,0,23.4
	l0,0c0,0.1-0.4,1.4-0.8,3c-0.7-0.1-1.3-0.2-2.1-0.3c0-3.8,2.6-4-2.4-23c-0.5-1.9-1-3.5-1.4-5c-4.4-16.2-4-11.5-3.9-17.7
	c0,0.4,11.3-4.2,4-8.5c-7.4-4.2-11-3.1-13.4,1c-2.4,4.1-7.3,11.8,2.6,12.1c-0.1,0.5,1.1,10.4,3.6,19c1.6,6.4,3,14.4,3.6,21.4
	c0.1,1.3,0.1,2.5,0.2,3.6c-1.1-3-2.8-7.3-5.4-13.2c-0.4-0.8-0.8-1.6-1.2-2.4c-2.8-5.9-9.4-15.6-9.9-15.5c8.4-3.6-6.9-14.5-10.9-4.7
	c-2.8,7,2.2,7.8,3.2,8.1c1,0.3,3.5,6.4,7.1,12.8c2.9,5.6,5.1,16.9,5.7,21c0.1,3.8-2.4,4.3-1.4,9.8c0.1,0.5,0.2,1,0.3,1.4
	C34.6,177.5,32.5,181.9,32.5,186.9z"/>
<path fill="none" stroke="#1E1E1C" stroke-width="0.5" stroke-miterlimit="10" d="M33.2,187.5c0,11.4,9.2,20.5,20.5,20.5
	c11.4,0,20.5-9.2,20.5-20.5c0-3.2-0.8-6.3-2.3-8.9c0.5-1.2,0.9-2.3,0.8-2.4c-0.1-0.3,1.2-4.6,1-4.9c-0.7-1.6,2-19,2.2-28.8
	c2-9.6,4.5-16,6-19.3c1.7,0.9,5,2.6,7.3,1.4c3.2-1.7-1.8-13.7-7.9-14.1c-6.1-0.2-9.3,1.7-9,4.3c0.2,1.4,3.1,2.5,5.6,3.1
	c-1,2.2-2,5.5-3,10.5c-1.9,10.2-4.1,18.6-5.8,24.2c-0.9,3-1.6,5.3-2.1,6.8c0-0.8,0-1.5,0.1-2.1c0.1-0.5,0.2-1,0.3-1.6
	c0.6-4.3,1.9-17.4-1.4-28.4c-4-13.3,3-22.3,3.8-33.8c1.1-0.2,2.5-0.5,3.8-1c2-0.8,3.9-2.1,4.1-4.1c4.3-4.8-10.7-19.2-18.7-12.3
	c-4.8,4.5-13.5,11.5-6.4,13.3c7.2,1.6,7.7,1.3,7.6,1.6c-0.2,0.8-5,16.2-3.9,24.7c0.7,4.5,2.4,8.7,3.4,14.3c1,5.1,1.4,11.9,0,21.8
	l0,0c0,0.1-0.3,1.4-0.8,2.8c-0.6-0.1-1.2-0.2-1.9-0.2c0-3.4,2.4-3.5-2.2-20.9c-0.5-1.7-0.9-3.2-1.3-4.5c-4-14.9-3.7-10.4-3.6-16.1
	c0,0.4,10.4-3.8,3.7-7.7c-6.8-3.8-10.2-2.7-12.4,1.1c-2.3,3.9-6.8,11.1,2.3,11.4c-0.1,0.6,1,9.7,3.3,17.8c1.5,6,2.7,13.5,3.3,20
	c0.1,1.2,0.1,2.3,0.1,3.4c-1.1-2.7-2.7-6.6-5.1-12c-0.4-0.7-0.7-1.5-1.1-2.2c-2.7-5.4-8.9-14.4-9.4-14.2c7.6-3.3-6.5-13.3-10.3-4.2
	c-2.6,6.5,2,7.3,2.9,7.6c0.9,0.3,3.2,6,6.5,12c2.6,5.2,4.6,15.8,5.2,19.6c0.1,3.5-2.2,4-1.3,9.1c0.1,0.5,0.2,0.9,0.3,1.3
	C35.1,178.7,33.2,182.9,33.2,187.5z"/>
<path fill="none" stroke="#1E1E1C" stroke-width="0.5" stroke-miterlimit="10" d="M33.9,188.1c0,11,8.9,19.9,19.9,19.9
	c11,0,19.9-8.9,19.9-19.9c0-3-0.8-5.9-2.1-8.4c0.4-1.1,0.8-2.2,0.7-2.3c-0.1-0.3,1-4.3,0.9-4.6c-0.8-1.7,1.5-17.9,1.5-27
	c1.9-8.8,4.2-14.8,5.6-18c1.6,0.8,4.6,2.3,6.7,1.2c2.9-1.7-1.6-12.7-7.2-13.2c-5.6-0.2-8.5,1.5-8.2,3.8c0.2,1.3,2.8,2.2,5.1,2.7
	c-0.9,1.9-1.8,4.9-2.7,9.5c-1.7,9.2-3.7,16.8-5.2,21.8c-0.8,2.7-1.5,4.8-1.9,6.1c0-0.7,0-1.4,0.1-2c0.1-0.5,0.2-1,0.3-1.5
	c0.5-4.1,1.8-16.2-1.3-26.4c-3.7-12.4,2.7-20.8,3.4-31.4c1-0.2,2.3-0.5,3.5-1c1.9-0.7,3.6-1.9,3.8-3.8C81.3,89.4,67,74.9,59,81.6
	c-4.5,4.2-12.5,10.7-6.1,12.4c6.5,1.5,7,1.3,6.9,1.6c-0.2,0.9-4.6,15.1-3.5,23c0.7,4.2,2.3,8.1,3.3,13.2c0.9,4.7,1.3,11,0.1,20.3
	l0,0c0,0.1-0.3,1.3-0.7,2.6c-0.6-0.1-1.1-0.1-1.7-0.2c0-3,2.2-3-2-18.8c-0.4-1.5-0.8-2.9-1.2-4.1c-3.7-13.5-3.4-9.4-3.3-14.5
	c-0.1,0.4,9.6-3.3,3.4-6.8c-6.2-3.5-9.3-2.4-11.4,1.2c-2.1,3.6-6.3,10.3,2.1,10.6c-0.2,0.6,0.9,9.1,2.9,16.5
	c1.3,5.6,2.4,12.6,2.9,18.6c0.1,1.1,0.1,2.1,0.1,3.2c-1-2.4-2.6-5.9-4.8-10.9c-0.3-0.7-0.7-1.3-1-2c-2.6-5-8.3-13.2-8.8-13
	c6.9-3-6.2-12.1-9.7-3.7c-2.5,6,1.7,6.7,2.5,7.1c0.8,0.3,2.8,5.6,5.8,11.1c2.3,4.9,4.2,14.6,4.6,18.2c0.1,3.3-2.1,3.8-1.2,8.5
	c0.1,0.4,0.2,0.9,0.3,1.2C35.6,179.9,33.9,183.8,33.9,188.1z"/>
<path fill="none" stroke="#1E1E1C" stroke-width="0.5" stroke-miterlimit="10" d="M34.6,188.8c0,10.7,8.6,19.3,19.3,19.3
	c10.7,0,19.3-8.6,19.3-19.3c0-2.8-0.7-5.6-2-7.9c0.4-1,0.7-2,0.7-2.2c-0.1-0.3,0.9-4,0.8-4.3c-0.8-1.8,1-16.7,0.7-25.1
	c1.7-8.1,3.9-13.6,5.1-16.6c1.4,0.7,4.2,2,6.2,1c2.7-1.6-1.5-11.7-6.5-12.2c-5.1-0.2-7.7,1.2-7.4,3.3c0.2,1.1,2.6,2,4.7,2.4
	c-0.8,1.7-1.7,4.4-2.4,8.4c-1.6,8.3-3.3,15-4.7,19.4c-0.7,2.4-1.3,4.3-1.8,5.5c0-0.7,0-1.3,0.1-1.8c0.1-0.4,0.2-0.9,0.3-1.4
	c0.5-3.8,1.6-15-1.1-24.4c-3.3-11.5,2.5-19.3,3.1-29c0.9-0.2,2.1-0.5,3.1-0.9c1.7-0.7,3.3-1.8,3.5-3.5c5-4-8.7-18.6-16.6-12
	c-4.2,3.8-11.5,9.9-5.7,11.5c5.9,1.4,6.3,1.3,6.3,1.6c-0.2,0.9-4.2,14-3.1,21.3c0.7,3.9,2.2,7.6,3.1,12.2c0.9,4.3,1.3,10.2,0.2,18.8
	l0,0c0,0.1-0.3,1.2-0.6,2.4c-0.5-0.1-1-0.1-1.6-0.1c0-2.7,2-2.5-1.8-16.7c-0.4-1.4-0.7-2.6-1-3.6c-3.3-12.2-3.1-8.3-3-12.8
	c-0.1,0.4,8.7-2.9,3-6c-5.7-3.1-8.5-2-10.4,1.3c-1.9,3.4-5.7,9.5,1.8,9.9c-0.2,0.6,0.7,8.4,2.6,15.3c1.2,5.2,2.2,11.7,2.6,17.2
	c0,1,0.1,2,0,2.9c-1-2.1-2.4-5.3-4.6-9.7c-0.3-0.6-0.6-1.2-1-1.8c-2.4-4.5-7.7-11.9-8.3-11.7c6.2-2.6-5.8-10.9-9.1-3.2
	c-2.3,5.5,1.5,6.2,2.2,6.5c0.7,0.3,2.5,5.2,5.1,10.3c2.1,4.5,3.7,13.5,4.1,16.9c0.1,3-1.9,3.5-1.1,7.9c0.1,0.4,0.1,0.8,0.3,1.1
	C36.2,181.2,34.6,184.8,34.6,188.8z"/>
<path fill="none" stroke="#1E1E1C" stroke-width="0.5" stroke-miterlimit="10" d="M35.2,189.4c0,10.3,8.4,18.7,18.7,18.7
	c10.3,0,18.7-8.4,18.7-18.7c0-2.7-0.7-5.2-1.8-7.4c0.4-1,0.6-1.9,0.6-2c-0.1-0.3,0.8-3.7,0.6-4c-0.9-1.9,0.5-15.6-0.1-23.3
	c1.6-7.4,3.5-12.4,4.7-15.2c1.3,0.6,3.8,1.7,5.6,0.7c2.4-1.5-1.3-10.7-5.8-11.3c-4.6-0.3-6.9,1-6.6,2.8c0.2,1,2.3,1.7,4.2,2
	c-0.7,1.5-1.5,3.8-2.1,7.4c-1.4,7.3-2.9,13.2-4.1,17c-0.6,2.2-1.2,3.8-1.6,4.8c0-0.6,0-1.2,0.1-1.7c0.1-0.4,0.2-0.8,0.2-1.3
	c0.4-3.6,1.5-13.8-1-22.4c-3-10.5,2.2-17.7,2.8-26.6c0.8-0.2,1.9-0.5,2.8-0.9c1.5-0.7,3-1.7,3.2-3.2c5.3-3.6-7.8-18.3-15.5-11.9
	c-3.8,3.5-10.5,9-5.3,10.6c5.3,1.3,5.6,1.2,5.6,1.5c-0.2,1-3.7,12.9-2.7,19.5c0.7,3.6,2.1,7,3,11.2c0.8,3.9,1.2,9.3,0.2,17.2l0,0
	c0,0.1-0.2,1.1-0.6,2.2c-0.5,0-0.9-0.1-1.4-0.1c0-2.3,1.8-2-1.6-14.6c-0.3-1.2-0.7-2.2-0.9-3.1c-3-10.9-2.8-7.3-2.7-11.2
	c-0.1,0.5,7.8-2.4,2.7-5.2c-5.1-2.7-7.7-1.6-9.4,1.4c-1.8,3.1-5.2,8.7,1.6,9.2c-0.2,0.7,0.6,7.8,2.2,14.1c1,4.8,1.9,10.8,2.2,15.8
	c0,0.9,0,1.8,0,2.7c-0.9-1.8-2.3-4.6-4.3-8.6c-0.3-0.5-0.6-1.1-0.9-1.7c-2.3-4-7.2-10.7-7.8-10.4c5.4-2.3-5.4-9.7-8.5-2.7
	c-2.1,5,1.3,5.6,1.8,6c0.5,0.4,2.1,4.8,4.5,9.5c1.8,4.1,3.2,12.3,3.5,15.5c0,2.8-1.7,3.3-1.1,7.2c0.1,0.4,0.1,0.7,0.2,1
	C36.7,182.4,35.2,185.7,35.2,189.4z"/>
<path fill="none" stroke="#1E1E1C" stroke-width="0.5" stroke-miterlimit="10" d="M35.9,190c0,10,8.1,18,18,18c10,0,18-8.1,18-18
	c0-2.5-0.6-4.8-1.7-6.9c0.3-0.9,0.5-1.7,0.5-1.9c-0.1-0.4,0.6-3.4,0.5-3.8c-0.9-2,0-14.5-0.9-21.5c1.4-6.6,3.2-11.2,4.3-13.8
	c1.2,0.5,3.4,1.5,5,0.5c2.2-1.4-1.1-9.8-5-10.3c-4-0.3-6.1,0.7-5.8,2.3c0.1,0.8,2.1,1.4,3.8,1.7c-0.6,1.2-1.3,3.2-1.9,6.4
	c-1.2,6.3-2.6,11.4-3.6,14.6c-0.6,1.9-1,3.3-1.4,4.1c0-0.5,0-1.1,0.1-1.5c0.1-0.4,0.2-0.7,0.2-1.1c0.4-3.4,1.3-12.6-0.9-20.4
	c-2.7-9.6,1.9-16.2,2.4-24.3c0.7-0.2,1.7-0.5,2.5-0.9c1.3-0.6,2.7-1.6,2.9-2.9c5.6-3.2-6.8-18.1-14.5-11.7c-3.5,3.2-9.6,8.2-5,9.7
	c4.7,1.2,5,1.2,4.9,1.5c-0.2,1-3.3,11.8-2.3,17.8c0.6,3.3,2,6.4,2.8,10.1c0.8,3.5,1.2,8.4,0.3,15.7l0,0c0,0.1-0.2,1-0.5,2
	c-0.4,0-0.8,0-1.3,0c0-1.9,1.6-1.5-1.4-12.5c-0.3-1-0.6-1.9-0.8-2.7c-2.7-9.6-2.5-6.2-2.4-9.6c-0.1,0.5,6.9-2,2.3-4.4
	c-4.6-2.3-6.9-1.3-8.4,1.6c-1.6,2.9-4.7,8,1.3,8.5c-0.2,0.7,0.5,7.2,1.9,12.9c0.8,4.4,1.6,9.9,1.9,14.4c0,0.8,0,1.7,0,2.4
	c-0.9-1.5-2.2-4-4-7.4c-0.3-0.5-0.6-1-0.9-1.5c-2.1-3.6-6.6-9.5-7.2-9.2c4.7-2-5.1-8.5-7.9-2.2c-1.9,4.5,1,5.1,1.5,5.5
	c0.4,0.4,1.8,4.4,3.8,8.6c1.5,3.8,2.7,11.2,2.9,14.1c0,2.5-1.6,3-1,6.6c0.1,0.3,0.1,0.7,0.2,1C37.2,183.6,35.9,186.7,35.9,190z"/>
<path fill="none" stroke="#1E1E1C" stroke-width="0.5" stroke-miterlimit="10" d="M36.6,190.6c0,9.6,7.8,17.4,17.4,17.4
	c9.6,0,17.4-7.8,17.4-17.4c0-2.3-0.6-4.5-1.5-6.4c0.3-0.8,0.5-1.6,0.4-1.8c-0.1-0.4,0.5-3.1,0.4-3.5c-1-2.2-0.5-13.3-1.6-19.6
	c1.3-5.9,2.9-10.1,3.9-12.5c1,0.4,3,1.2,4.4,0.3c2-1.4-0.9-8.8-4.3-9.4c-3.5-0.3-5.3,0.5-5.1,1.7c0.1,0.7,1.8,1.2,3.3,1.3
	c-0.5,1-1.1,2.7-1.6,5.3c-1,5.4-2.2,9.7-3.1,12.2c-0.5,1.6-0.9,2.8-1.2,3.4c0-0.5,0-1,0.1-1.4c0.1-0.3,0.2-0.7,0.2-1
	c0.4-3.1,1.2-11.4-0.7-18.4c-2.3-8.7,1.7-14.7,2.1-21.9c0.6-0.2,1.4-0.5,2.2-0.9c1.2-0.6,2.4-1.5,2.6-2.6c6-2.8-5.8-17.8-13.4-11.6
	c-3.2,2.9-8.6,7.4-4.6,8.8c4.1,1.1,4.3,1.2,4.2,1.5c-0.2,1.1-2.9,10.7-1.9,16.1c0.6,3,1.9,5.8,2.7,9.1c0.8,3.1,1.1,7.6,0.4,14.2l0,0
	c0,0.1-0.2,0.9-0.4,1.8c-0.4,0-0.7,0-1.1,0c0-1.5,1.4-1-1.2-10.4c-0.3-0.9-0.5-1.6-0.7-2.2c-2.3-8.3-2.2-5.2-2.2-8
	c-0.1,0.5,6-1.6,2-3.5c-4-1.9-6.1-0.9-7.4,1.7c-1.4,2.6-4.1,7.2,1.1,7.7c-0.2,0.8,0.3,6.5,1.6,11.6c0.7,4.1,1.3,8.9,1.5,13
	c0,0.8,0,1.5-0.1,2.2c-0.8-1.2-2.1-3.3-3.7-6.3c-0.3-0.4-0.5-0.8-0.8-1.3c-2-3.1-6-8.2-6.7-7.9c4-1.7-4.7-7.3-7.3-1.7
	c-1.7,4,0.8,4.5,1.1,4.9c0.3,0.4,1.4,4,3.1,7.8c1.3,3.4,2.2,10.1,2.4,12.7c0,2.3-1.4,2.8-0.9,6c0,0.3,0.1,0.6,0.2,0.9
	C37.7,184.9,36.6,187.6,36.6,190.6z"/>
<path fill="none" stroke="#1E1E1C" stroke-width="0.5" stroke-miterlimit="10" d="M37.3,191.3c0,9.3,7.5,16.8,16.8,16.8
	c9.3,0,16.8-7.5,16.8-16.8c0-2.1-0.5-4.1-1.3-5.9c0.2-0.7,0.4-1.4,0.3-1.6c-0.1-0.4,0.4-2.8,0.2-3.2c-1.1-2.3-1-12.2-2.4-17.8
	c1.2-5.2,2.6-8.9,3.4-11.1c0.9,0.3,2.6,0.9,3.8,0.1c1.7-1.3-0.7-7.8-3.6-8.5c-3-0.4-4.5,0.3-4.3,1.2c0.1,0.5,1.6,0.9,2.9,1
	c-0.4,0.8-0.9,2.1-1.3,4.3c-0.8,4.4-1.8,7.9-2.5,9.9c-0.4,1.3-0.7,2.2-1,2.8c0-0.4,0-0.8,0.1-1.2c0.1-0.3,0.1-0.6,0.2-0.9
	c0.3-2.9,1.1-10.2-0.6-16.4c-2-7.7,1.4-13.2,1.8-19.5c0.5-0.2,1.2-0.5,1.9-0.8c1-0.5,2.1-1.3,2.3-2.3c6.3-2.4-4.8-17.5-12.4-11.4
	c-2.9,2.6-7.6,6.5-4.3,7.8c3.5,1,3.6,1.1,3.5,1.5c-0.2,1.2-2.4,9.6-1.6,14.4c0.6,2.8,1.8,5.2,2.5,8.1c0.7,2.7,1.1,6.7,0.5,12.6l0,0
	c0,0.1-0.2,0.8-0.4,1.7c-0.3,0-0.6,0-0.9,0.1c0-1.1,1.2-0.5-1-8.3c-0.2-0.7-0.4-1.3-0.6-1.8c-2-6.9-1.9-4.1-1.9-6.4
	c-0.1,0.6,5.1-1.1,1.7-2.7c-3.5-1.5-5.2-0.5-6.4,1.8c-1.2,2.4-3.6,6.4,0.8,7c-0.2,0.8,0.2,5.9,1.2,10.4c0.5,3.7,1,8,1.2,11.6
	c0,0.7,0,1.3-0.1,1.9c-0.8-0.9-1.9-2.7-3.5-5.2c-0.3-0.3-0.5-0.7-0.8-1.1c-1.9-2.6-5.4-7-6.2-6.7c3.3-1.4-4.3-6.1-6.7-1.2
	c-1.5,3.4,0.5,4,0.8,4.4c0.1,0.5,1.1,3.6,2.5,6.9c1,3.1,1.7,8.9,1.8,11.4c0,2-1.2,2.5-0.8,5.3c0,0.3,0.1,0.5,0.1,0.8
	C38.2,186.1,37.3,188.6,37.3,191.3z"/>
<path fill="none" stroke="#1E1E1C" stroke-width="0.5" stroke-miterlimit="10" d="M37.9,191.9c0,8.9,7.2,16.1,16.1,16.1
	c8.9,0,16.1-7.2,16.1-16.1c0-1.9-0.4-3.8-1.2-5.4c0.2-0.7,0.3-1.3,0.2-1.5c-0.1-0.4,0.3-2.5,0.1-2.9c-1.1-2.4-1.4-11.1-3.2-15.9
	c1-4.5,2.2-7.7,3-9.7c0.8,0.2,2.2,0.6,3.2-0.1c1.5-1.2-0.5-6.8-2.9-7.5c-2.5-0.4-3.7,0-3.5,0.7c0.1,0.4,1.4,0.6,2.5,0.6
	c-0.3,0.5-0.7,1.6-1,3.3c-0.7,3.5-1.4,6.1-2,7.5c-0.3,1-0.6,1.7-0.8,2.1c0-0.4,0-0.7,0.1-1.1c0-0.3,0.1-0.5,0.1-0.8
	c0.3-2.6,0.9-9-0.5-14.4c-1.7-6.8,1.2-11.7,1.5-17.1c0.5-0.2,1-0.5,1.6-0.8c0.8-0.5,1.8-1.2,2.1-2.1c6.6-2-3.8-17.3-11.3-11.3
	c-2.6,2.3-6.6,5.7-3.9,6.9c2.8,1,2.9,1.1,2.9,1.5c-0.3,1.2-2,8.5-1.2,12.7c0.6,2.5,1.7,4.6,2.4,7.1c0.7,2.4,1,5.8,0.5,11.1l0,0
	c0,0.1-0.1,0.7-0.3,1.5c-0.3,0-0.5,0.1-0.8,0.1c0-0.7,1.1,0.1-0.8-6.2c-0.2-0.5-0.3-1-0.5-1.3c-1.6-5.6-1.6-3.1-1.6-4.7
	c-0.1,0.6,4.2-0.7,1.3-1.9c-2.9-1.1-4.4-0.2-5.5,1.9c-1.1,2.1-3.1,5.7,0.6,6.3c-0.2,0.9,0.1,5.3,0.9,9.2c0.4,3.3,0.7,7.1,0.8,10.2
	c0,0.6-0.1,1.2-0.1,1.7c-0.8-0.7-1.8-2-3.2-4c-0.2-0.3-0.5-0.6-0.7-0.9c-1.7-2.2-4.9-5.7-5.6-5.4c2.5-1.1-4-4.9-6.1-0.7
	c-1.4,2.9,0.3,3.5,0.5,3.8c0,0.5,0.7,3.2,1.8,6.1c0.7,2.7,1.3,7.8,1.3,10c0,1.8-1.1,2.3-0.8,4.7c0,0.2,0.1,0.5,0.1,0.7
	C38.8,187.3,37.9,189.5,37.9,191.9z"/>
<path fill="none" stroke="#1E1E1C" stroke-width="0.5" stroke-miterlimit="10" d="M38.5,192.5c0,8.6,6.9,15.5,15.5,15.5
	c8.6,0,15.5-6.9,15.5-15.5c0-1.7-0.4-3.4-1-4.9c0.1-0.6,0.2-1.1,0.1-1.4c-0.1-0.4,0.1-2.2-0.1-2.6c-1.2-2.5-1.9-9.9-3.9-14.1
	c0.9-3.7,1.9-6.5,2.6-8.4c0.6,0,1.8,0.3,2.7-0.3c1.2-1.1-0.3-5.8-2.2-6.6c-2-0.4-2.9-0.2-2.7,0.2c0.1,0.2,1.1,0.4,2,0.3
	c-0.3,0.3-0.5,1-0.8,2.2c-0.5,2.5-1,4.3-1.4,5.1c-0.2,0.7-0.5,1.2-0.6,1.4c0-0.3,0-0.6,0.1-0.9c0-0.2,0.1-0.4,0.1-0.7
	c0.3-2.4,0.8-7.8-0.3-12.4c-1.3-5.9,0.9-10.2,1.1-14.8c0.4-0.2,0.8-0.5,1.2-0.8c0.7-0.5,1.5-1.1,1.8-1.8c7-1.6-2.8-17-10.3-11.1
	c-2.3,2-5.6,4.9-3.6,6c2.2,0.9,2.3,1.1,2.2,1.5c-0.3,1.3-1.6,7.4-0.8,11c0.6,2.2,1.6,4.1,2.2,6c0.6,2,1,4.9,0.6,9.6l0,0
	c0,0.1-0.1,0.7-0.2,1.3c-0.2,0-0.4,0.1-0.6,0.2c0.1-0.4,0.9,0.6-0.6-4.1c-0.1-0.4-0.3-0.7-0.4-0.9c-1.3-4.3-1.2-2.1-1.3-3.1
	c-0.1,0.6,3.3-0.2,1-1c-2.4-0.7-3.6,0.2-4.5,2c-0.9,1.9-2.6,4.9,0.3,5.6c-0.2,0.9,0,4.6,0.5,7.9c0.2,2.9,0.4,6.2,0.4,8.8
	c0,0.5-0.1,1-0.2,1.5c-0.7-0.4-1.7-1.3-2.9-2.9c-0.2-0.2-0.4-0.5-0.7-0.7c-1.6-1.7-4.3-4.5-5.1-4.2c1.8-0.8-3.6-3.7-5.5-0.2
	c-1.2,2.4,0.1,2.9,0.1,3.3c0,0.5,0.3,2.8,1.1,5.3c0.4,2.4,0.8,6.6,0.7,8.6c-0.1,1.5-0.9,2-0.7,4.1c0,0.2,0,0.4,0.1,0.6
	C39.2,188.6,38.5,190.5,38.5,192.5z"/>
<path fill="none" stroke="#1E1E1C" stroke-width="0.5" stroke-miterlimit="10" d="M38.9,193.2c0,8.2,6.7,14.9,14.9,14.9
	c8.2,0,14.9-6.7,14.9-14.9c0-1.6-0.3-3.1-0.9-4.4c0.1-0.5,0.1-1,0-1.2c-0.1-0.5,0-1.9-0.2-2.4c-1.2-2.6-2.4-8.8-4.7-12.2
	c0.7-3,1.6-5.3,2.2-7c0.5-0.1,1.4,0.1,2.1-0.6c1-1.1-0.1-4.8-1.5-5.6c-1.4-0.5-2.1-0.5-1.9-0.3c0.1,0.1,0.9,0.1,1.6-0.1
	c-0.2,0.1-0.3,0.4-0.5,1.2c-0.3,1.5-0.7,2.5-0.9,2.7c-0.2,0.4-0.3,0.7-0.4,0.7c0-0.3,0-0.5,0.1-0.7c0-0.2,0.1-0.4,0.1-0.6
	c0.2-2.2,0.6-6.6-0.2-10.4c-1-4.9,0.7-8.6,0.8-12.4c0.3-0.2,0.6-0.5,0.9-0.7c0.5-0.4,1.2-1,1.5-1.5c7.3-1.2-1.9-16.7-9.2-11
	c-2,1.7-4.6,4-3.2,5.1c1.6,0.8,1.6,1,1.5,1.4c-0.3,1.3-1.1,6.3-0.4,9.2c0.6,1.9,1.5,3.5,2,5c0.6,1.6,0.9,4.1,0.7,8l0,0
	c0,0.1-0.1,0.6-0.2,1.1c-0.2,0.1-0.3,0.1-0.5,0.2c0.1,0,0.7,1.1-0.4-2c-0.1-0.2-0.2-0.3-0.3-0.4c-1-3-0.9-1-1-1.5
	c-0.1,0.7,2.5,0.2,0.7-0.2c-1.8-0.3-2.8,0.6-3.5,2.1c-0.7,1.6-2,4.1,0.1,4.8c-0.2,0.9-0.2,4,0.2,6.7c0.1,2.5,0.1,5.3,0.1,7.5
	c-0.1,0.4-0.1,0.8-0.2,1.2c-0.7-0.1-1.6-0.7-2.6-1.7c-0.2-0.2-0.4-0.3-0.6-0.5c-1.4-1.2-3.7-3.3-4.5-2.9c1.1-0.5-3.2-2.5-4.9,0.3
	c-1,1.9-0.1,2.4-0.2,2.8c-0.2,0.5,0,2.4,0.5,4.4c0.2,2,0.3,5.5,0.2,7.3c-0.1,1.2-0.8,1.8-0.6,3.4c0,0.2,0,0.3,0,0.5
	C39.4,189.8,38.9,191.4,38.9,193.2z"/>
<path fill="none" stroke="#1E1E1C" stroke-width="0.5" stroke-miterlimit="10" d="M39.4,193.8c0,7.9,6.4,14.3,14.3,14.3
	c7.9,0,14.3-6.4,14.3-14.3c0-1.4-0.3-2.7-0.7-3.9c0-0.4,0-0.9-0.1-1.1c-0.2-0.5-0.1-1.6-0.3-2.1c-1.3-2.8-2.9-7.7-5.5-10.4
	c0.6-2.3,1.2-4.2,1.7-5.6c0.4-0.2,1-0.2,1.5-0.8c0.7-1,0.1-3.8-0.8-4.7c-0.9-0.5-1.3-0.7-1.2-0.8c0.1-0.1,0.6-0.2,1.1-0.4
	c-0.1-0.2-0.1-0.1-0.2,0.1c-0.1,0.6-0.3,0.7-0.4,0.3c-0.1,0.2-0.2,0.2-0.2,0.1c0-0.2,0-0.4,0-0.6c0-0.1,0.1-0.3,0.1-0.5
	c0.2-1.9,0.5-5.4-0.1-8.4c-0.7-4,0.4-7.1,0.5-10c0.2-0.2,0.4-0.5,0.6-0.7c0.3-0.4,0.9-0.8,1.2-1.2c7.6-0.8-0.9-16.4-8.2-10.8
	c-1.6,1.4-3.7,3.2-2.8,4.2c1,0.7,0.9,1,0.8,1.4c-0.3,1.4-0.7,5.2,0,7.5c0.6,1.6,1.4,2.9,1.9,4c0.6,1.2,0.9,3.2,0.7,6.5l0,0
	c0,0.1,0,0.5-0.1,0.9c-0.1,0.1-0.2,0.2-0.3,0.3c0.1,0.4,0.5,1.6-0.2,0.1c-0.1,0-0.1,0-0.2,0c-0.6-1.7-0.6,0-0.7,0.1
	c-0.1,0.7,1.6,0.6,0.3,0.6c-1.3,0-2,0.9-2.5,2.3c-0.5,1.4-1.5,3.3-0.2,4.1c-0.3,1-0.3,3.4-0.1,5.5c-0.1,2.1-0.2,4.4-0.3,6.1
	c-0.1,0.3-0.1,0.7-0.2,1c-0.6,0.2-1.5,0-2.3-0.6c-0.2-0.1-0.4-0.2-0.6-0.3c-1.3-0.8-3.2-2-4-1.7c0.3-0.2-2.9-1.3-4.3,0.8
	c-0.8,1.4-0.4,1.9-0.6,2.2c-0.3,0.6-0.4,2-0.2,3.6c-0.1,1.7-0.2,4.3-0.4,5.9c-0.1,1-0.6,1.5-0.5,2.8c0,0.1,0,0.3,0,0.4
	C39.7,191.1,39.4,192.4,39.4,193.8z"/>
<path fill="none" stroke="#1E1E1C" stroke-width="0.5" stroke-miterlimit="10" d="M39.8,194.4c0,7.5,6.1,13.6,13.6,13.6
	c7.5,0,13.6-6.1,13.6-13.6c0-1.2-0.2-2.3-0.5-3.4c0-0.4-0.1-0.7-0.1-1c-0.2-0.5-0.2-1.3-0.5-1.8c-1.3-2.9-3.4-6.5-6.2-8.5
	c0.4-1.6,0.9-3,1.3-4.3c0.2-0.3,0.6-0.5,0.9-1c0.5-0.9,0.3-2.8,0-3.7c-0.4-0.6-0.5-1-0.4-1.3c0.1-0.2,0.4-0.5,0.7-0.7
	c0-0.4,0.1-0.7,0.1-0.9c0.1-0.4,0.1-1,0.2-2c0-0.1,0-0.3,0-0.6c0-0.2,0-0.3,0-0.4c0-0.1,0-0.2,0-0.3c0.2-1.7,0.3-4.2,0.1-6.4
	c-0.3-3.1,0.2-5.6,0.2-7.6c0.1-0.2,0.2-0.5,0.3-0.7c0.2-0.3,0.6-0.7,0.9-0.9c8-0.4,0.1-16.2-7.1-10.7c-1.3,1.1-2.7,2.4-2.5,3.2
	c0.4,0.6,0.3,1,0.2,1.4c-0.3,1.5-0.3,4.1,0.4,5.8c0.6,1.3,1.3,2.3,1.7,2.9c0.6,0.8,0.8,2.3,0.8,5l0,0c0,0.1,0,0.4,0,0.7
	c0,0.1-0.1,0.2-0.1,0.3c0.1,0.8,0.3,2.1,0,2.2c0,0.1,0,0.3-0.1,0.5c-0.3-0.3-0.3,1.1-0.4,1.7c-0.1,0.7,0.7,1.1,0,1.5
	c-0.7,0.4-1.1,1.3-1.5,2.4c-0.4,1.2-1,2.6-0.4,3.4c-0.3,1-0.4,2.7-0.5,4.2c-0.2,1.8-0.5,3.4-0.6,4.7c-0.1,0.3-0.2,0.5-0.3,0.7
	c-0.6,0.5-1.3,0.6-2.1,0.6c-0.2,0-0.3-0.1-0.5-0.1c-1.2-0.3-2.6-0.8-3.5-0.4c-0.4,0.2-2.5-0.1-3.7,1.3c-0.6,0.9-0.6,1.3-0.9,1.7
	c-0.4,0.6-0.7,1.6-0.9,2.7c-0.4,1.3-0.7,3.2-0.9,4.5c-0.1,0.7-0.4,1.2-0.5,2.1c0,0.1,0,0.2,0,0.3C40,192.3,39.8,193.3,39.8,194.4z"
	/>
<path fill="none" stroke="#1E1E1C" stroke-width="0.5" stroke-miterlimit="10" d="M58,183c1.1-3.2,2.4-8.2,3.6-16.2
	c0.7-4.5,0.3-10.3,0.2-12.1c0-0.3,0.3-0.6,0.6-0.6c8.3,0,1.1-15.9-6.1-10.5c-5.4,4-1.3,9.1-0.3,9.7c1,0.6,0.8,3.5,1.2,9.5
	c0.3,5-2.6,14.1-3.5,17.1c-0.6,1.1-1.4,1.7-2.1,2.2c-6.4,0.8-11.4,6.2-11.4,12.9c0,7.2,5.8,13,13,13c7.2,0,13-5.8,13-13
	C66.1,189.6,62.8,185,58,183z"/>
</svg>
